<mxfile host="Electron" agent="Mozilla/5.0 (Windows NT 10.0; Win64; x64) AppleWebKit/537.36 (KHTML, like Gecko) draw.io/24.7.8 Chrome/128.0.6613.36 Electron/32.0.1 Safari/537.36" version="24.7.8">
  <diagram name="Page-1" id="74b105a0-9070-1c63-61bc-23e55f88626e">
    <mxGraphModel dx="1509" dy="880" grid="0" gridSize="10" guides="1" tooltips="1" connect="1" arrows="1" fold="1" page="1" pageScale="1.5" pageWidth="1169" pageHeight="826" background="#FFFFFF" math="0" shadow="1">
      <root>
        <mxCell id="0" style=";html=1;" />
        <mxCell id="1" style=";html=1;" parent="0" />
        <mxCell id="10b056a9c633e61c-30" value="Framework" style="text;strokeColor=none;fillColor=none;html=1;fontSize=24;fontStyle=1;verticalAlign=middle;align=center;labelBackgroundColor=none;fontColor=#1A1A1A;" parent="1" vertex="1">
          <mxGeometry x="80" y="40" width="1590" height="40" as="geometry" />
        </mxCell>
        <mxCell id="2ML3LgwmoiDbL_degMb_-9" value="Planning" style="swimlane;whiteSpace=wrap;html=1;hachureGap=4;strokeColor=#909090;fontFamily=Helvetica;fontColor=#1A1A1A;fillColor=#F5AB50;fontSize=15;labelBackgroundColor=none;" vertex="1" parent="1">
          <mxGeometry x="174" y="53" width="610" height="310" as="geometry" />
        </mxCell>
        <mxCell id="2ML3LgwmoiDbL_degMb_-12" value="Requirements" style="swimlane;whiteSpace=wrap;html=1;hachureGap=4;strokeColor=#909090;fontFamily=Architects Daughter;fontSource=https%3A%2F%2Ffonts.googleapis.com%2Fcss%3Ffamily%3DArchitects%2BDaughter;fontColor=#1A1A1A;fillColor=#F5AB50;labelBackgroundColor=none;" vertex="1" parent="2ML3LgwmoiDbL_degMb_-9">
          <mxGeometry x="50" y="60" width="200" height="230" as="geometry" />
        </mxCell>
        <mxCell id="2ML3LgwmoiDbL_degMb_-14" value="Functional Spec" style="rounded=1;whiteSpace=wrap;html=1;hachureGap=4;strokeColor=#909090;fontFamily=Architects Daughter;fontSource=https%3A%2F%2Ffonts.googleapis.com%2Fcss%3Ffamily%3DArchitects%2BDaughter;fontColor=#1A1A1A;fillColor=#F5AB50;labelBackgroundColor=none;" vertex="1" parent="2ML3LgwmoiDbL_degMb_-12">
          <mxGeometry x="30" y="50" width="120" height="60" as="geometry" />
        </mxCell>
        <mxCell id="2ML3LgwmoiDbL_degMb_-15" value="Swagger" style="rounded=1;whiteSpace=wrap;html=1;hachureGap=4;strokeColor=#909090;fontFamily=Architects Daughter;fontSource=https%3A%2F%2Ffonts.googleapis.com%2Fcss%3Ffamily%3DArchitects%2BDaughter;fontColor=#1A1A1A;fillColor=#F5AB50;labelBackgroundColor=none;" vertex="1" parent="2ML3LgwmoiDbL_degMb_-12">
          <mxGeometry x="30" y="140" width="120" height="60" as="geometry" />
        </mxCell>
        <mxCell id="2ML3LgwmoiDbL_degMb_-13" value="Technology" style="swimlane;whiteSpace=wrap;html=1;hachureGap=4;strokeColor=#909090;fontFamily=Architects Daughter;fontSource=https%3A%2F%2Ffonts.googleapis.com%2Fcss%3Ffamily%3DArchitects%2BDaughter;fontColor=#1A1A1A;fillColor=#F5AB50;labelBackgroundColor=none;" vertex="1" parent="2ML3LgwmoiDbL_degMb_-9">
          <mxGeometry x="340" y="60" width="200" height="200" as="geometry" />
        </mxCell>
        <mxCell id="2ML3LgwmoiDbL_degMb_-17" value="Development" style="swimlane;whiteSpace=wrap;html=1;hachureGap=4;strokeColor=#909090;fontFamily=Architects Daughter;fontSource=https%3A%2F%2Ffonts.googleapis.com%2Fcss%3Ffamily%3DArchitects%2BDaughter;fontColor=#1A1A1A;fillColor=#F5AB50;labelBackgroundColor=none;" vertex="1" parent="1">
          <mxGeometry x="65" y="507" width="638" height="200" as="geometry" />
        </mxCell>
        <mxCell id="2ML3LgwmoiDbL_degMb_-3" value="" style="edgeStyle=orthogonalEdgeStyle;rounded=0;orthogonalLoop=1;jettySize=auto;html=1;shadow=1;labelBackgroundColor=none;strokeColor=#182E3E;fontColor=default;" edge="1" parent="2ML3LgwmoiDbL_degMb_-17" source="2ML3LgwmoiDbL_degMb_-1" target="2ML3LgwmoiDbL_degMb_-2">
          <mxGeometry relative="1" as="geometry" />
        </mxCell>
        <mxCell id="2ML3LgwmoiDbL_degMb_-1" value="EndPoints" style="rounded=1;whiteSpace=wrap;html=1;shadow=1;labelBackgroundColor=none;fillColor=#F5AB50;strokeColor=#909090;fontColor=#1A1A1A;" vertex="1" parent="2ML3LgwmoiDbL_degMb_-17">
          <mxGeometry x="245" y="70" width="120" height="60" as="geometry" />
        </mxCell>
        <mxCell id="2ML3LgwmoiDbL_degMb_-2" value="Test Cases" style="whiteSpace=wrap;html=1;rounded=1;shadow=1;labelBackgroundColor=none;fillColor=#F5AB50;strokeColor=#909090;fontColor=#1A1A1A;glass=0;" vertex="1" parent="2ML3LgwmoiDbL_degMb_-17">
          <mxGeometry x="467" y="73" width="120" height="60" as="geometry" />
        </mxCell>
        <mxCell id="2ML3LgwmoiDbL_degMb_-20" style="edgeStyle=orthogonalEdgeStyle;rounded=0;sketch=1;hachureGap=4;jiggle=2;curveFitting=1;orthogonalLoop=1;jettySize=auto;html=1;fontFamily=Architects Daughter;fontSource=https%3A%2F%2Ffonts.googleapis.com%2Fcss%3Ffamily%3DArchitects%2BDaughter;" edge="1" parent="2ML3LgwmoiDbL_degMb_-17" source="2ML3LgwmoiDbL_degMb_-19" target="2ML3LgwmoiDbL_degMb_-1">
          <mxGeometry relative="1" as="geometry" />
        </mxCell>
        <mxCell id="2ML3LgwmoiDbL_degMb_-19" value="Setup Environment" style="rounded=1;whiteSpace=wrap;html=1;sketch=1;hachureGap=4;jiggle=2;curveFitting=1;fontFamily=Architects Daughter;fontSource=https%3A%2F%2Ffonts.googleapis.com%2Fcss%3Ffamily%3DArchitects%2BDaughter;" vertex="1" parent="2ML3LgwmoiDbL_degMb_-17">
          <mxGeometry x="29" y="73" width="120" height="60" as="geometry" />
        </mxCell>
        <mxCell id="2ML3LgwmoiDbL_degMb_-18" value="Execution" style="swimlane;whiteSpace=wrap;html=1;hachureGap=4;strokeColor=#909090;fontFamily=Architects Daughter;fontSource=https%3A%2F%2Ffonts.googleapis.com%2Fcss%3Ffamily%3DArchitects%2BDaughter;fontColor=#1A1A1A;fillColor=#F5AB50;labelBackgroundColor=none;" vertex="1" parent="1">
          <mxGeometry x="840" y="540" width="450" height="200" as="geometry" />
        </mxCell>
      </root>
    </mxGraphModel>
  </diagram>
</mxfile>
